<?xml version="1.0" standalone="no"?>
<!DOCTYPE svg PUBLIC "-//W3C//DTD SVG 20010904//EN"
 "http://www.w3.org/TR/2001/REC-SVG-20010904/DTD/svg10.dtd">
<svg version="1.0" xmlns="http://www.w3.org/2000/svg"
 width="700.000000pt" height="700.000000pt" viewBox="0 0 700.000000 700.000000"
 preserveAspectRatio="xMidYMid meet">
<metadata>
Created by potrace 1.11, written by Peter Selinger 2001-2013
</metadata>
<g transform="translate(0.000000,700.000000) scale(0.100000,-0.100000)"
fill="#000000" stroke="none">
<path d="M1021 5814 c-158 -42 -307 -164 -374 -305 -66 -140 -62 -33 -62
-1729 l0 -1545 28 -80 c68 -195 216 -334 408 -385 l74 -19 -547 0 -548 -1 0
-290 0 -290 3500 0 3500 0 0 290 0 290 -547 1 -548 0 74 19 c192 51 340 190
408 385 l28 80 0 1545 c0 1269 -2 1555 -14 1600 -52 211 -218 381 -426 435
-53 13 -329 15 -2480 14 -2088 0 -2427 -2 -2474 -15z m4817 -2021 l-3 -1458
-2335 0 -2335 0 -3 1458 -2 1457 2340 0 2340 0 -2 -1457z"/>
<path d="M2246 4568 c-53 -176 -148 -463 -158 -475 -8 -10 -87 -13 -331 -13
l-321 0 159 -98 c88 -54 187 -116 220 -138 92 -63 148 -97 141 -86 -3 5 -55
51 -116 103 -60 51 -110 97 -110 101 0 4 97 8 215 8 l214 0 11 43 c6 23 29 99
50 169 21 69 42 142 46 162 3 20 9 36 13 36 4 0 40 -67 81 -150 41 -82 76
-148 78 -146 3 3 -157 568 -162 574 -2 1 -15 -39 -30 -90z"/>
<path d="M3062 4189 c-13 -5 -72 -13 -130 -19 -215 -20 -403 -88 -597 -215
-113 -75 -193 -147 -275 -249 -191 -238 -286 -432 -319 -656 -6 -41 -14 -86
-17 -100 -3 -14 26 34 64 105 88 166 229 386 321 503 88 112 234 250 315 299
34 20 87 54 118 75 153 102 379 200 528 229 36 7 79 18 95 25 29 13 29 13 -25
13 -30 0 -66 -5 -78 -10z"/>
<path d="M3030 3920 l0 -112 -30 -11 c-30 -11 -31 -14 -28 -67 l3 -55 100 0
c85 0 100 2 103 17 3 14 -3 15 -36 11 -22 -3 -49 0 -61 6 -21 12 -22 17 -20
164 1 132 -1 152 -15 155 -14 3 -16 -11 -16 -108z"/>
<path d="M3320 3968 c-59 -41 -75 -72 -75 -148 0 -54 4 -75 21 -96 39 -52 70
-68 142 -72 121 -6 177 47 177 168 0 71 -21 120 -63 148 -22 15 -22 15 3 -29
46 -81 26 -214 -36 -239 -33 -14 -78 -8 -114 16 -52 34 -70 189 -29 252 8 12
13 22 11 22 -2 0 -19 -10 -37 -22z"/>
<path d="M4418 3979 c-26 -15 -42 -83 -28 -123 13 -40 67 -93 99 -98 28 -4 68
-66 58 -91 -8 -23 -74 -23 -99 0 -16 14 -18 14 -18 0 0 -38 11 -47 63 -47 39
0 58 6 85 26 33 25 34 29 28 72 -7 52 -39 99 -96 139 -49 35 -67 74 -52 108
10 21 9 25 -6 25 -9 0 -25 -5 -34 -11z"/>
<path d="M4905 3978 c-24 -63 -95 -285 -95 -295 0 -8 12 -13 30 -13 23 0 30 4
30 20 0 25 30 100 40 100 4 0 27 -10 51 -23 35 -19 46 -31 53 -60 9 -36 11
-37 58 -37 26 0 48 2 48 5 0 2 -9 21 -21 41 -17 30 -19 42 -10 61 18 39 14 45
-30 41 l-41 -3 -29 73 c-15 41 -33 80 -40 88 -14 17 -38 18 -44 2z m70 -114
c19 -46 20 -44 -15 -44 -16 0 -30 3 -30 7 0 9 23 73 27 73 1 0 10 -16 18 -36z"/>
<path d="M4580 3943 c0 -36 13 -42 37 -17 9 9 28 14 47 12 30 -3 31 -6 39 -58
4 -30 10 -94 13 -142 5 -72 9 -88 23 -88 14 0 16 18 16 142 l0 143 43 -1 c28
0 42 3 42 12 0 18 -27 23 -153 26 l-107 3 0 -32z"/>
<path d="M3910 3870 c0 -105 -3 -111 -45 -84 -13 8 -35 14 -48 12 -18 -2 -36
11 -80 61 -31 35 -57 67 -57 72 0 5 -7 9 -15 9 -13 0 -15 -23 -15 -144 0 -79
-3 -151 -6 -160 -5 -13 1 -16 27 -16 l34 0 -3 110 c-3 90 -1 110 11 110 7 0
53 -43 101 -95 123 -134 124 -133 128 65 3 147 2 160 -14 160 -16 0 -18 -11
-18 -100z"/>
<path d="M2780 3884 c-47 -37 -132 -98 -190 -136 -58 -39 -105 -73 -105 -77 0
-3 28 -76 62 -161 94 -237 101 -227 -73 -114 -82 53 -160 105 -173 116 l-24
18 -36 -53 c-20 -29 -70 -98 -112 -152 -98 -130 -146 -200 -128 -190 38 23
165 121 214 165 32 29 65 50 78 50 12 0 99 -33 192 -73 94 -40 199 -84 235
-97 36 -13 73 -32 82 -44 32 -40 32 -3 0 87 -19 51 -61 171 -95 268 l-61 175
73 98 c40 54 91 118 113 142 22 24 39 44 37 44 -2 0 -42 -30 -89 -66z"/>
<path d="M4024 3929 c-4 -7 1 -16 10 -21 13 -7 17 -22 16 -61 -1 -29 -1 -85
-1 -124 l1 -73 75 0 c73 0 75 1 75 24 0 22 -5 25 -42 28 -43 3 -43 3 -46 46
l-3 42 39 0 c27 0 45 7 60 23 28 30 28 35 -3 29 -40 -7 -95 7 -95 24 0 13 9
15 45 12 46 -3 46 -3 43 27 l-3 30 -82 3 c-54 2 -84 -1 -89 -9z"/>
<path d="M5158 3780 l3 -130 45 0 44 0 0 114 c0 95 3 115 16 120 29 11 53 6
64 -13 16 -31 12 -51 -19 -81 -27 -28 -28 -30 -11 -45 10 -9 24 -31 31 -48 13
-34 97 -147 109 -147 10 0 -60 143 -83 168 -11 12 -16 22 -10 22 35 0 18 113
-22 148 -22 18 -38 22 -98 22 l-72 0 3 -130z"/>
<path d="M3370 3568 c-24 -13 -62 -45 -84 -71 -37 -44 -41 -54 -44 -116 -4
-60 -1 -70 21 -97 32 -38 104 -74 148 -74 19 0 59 -7 89 -15 72 -19 90 -19 90
3 0 14 -7 17 -44 14 -81 -7 -157 33 -192 100 -17 32 -18 102 -3 149 18 56 42
69 122 69 59 0 75 -4 94 -22 l23 -21 0 51 0 52 -88 0 c-71 0 -96 -4 -132 -22z"/>
<path d="M4685 3541 c-37 -23 -61 -49 -69 -78 -7 -21 -13 -23 -84 -23 l-77 0
0 -130 0 -130 78 0 c76 0 77 0 77 26 0 22 -3 24 -14 15 -8 -7 -34 -11 -58 -9
l-43 3 -3 68 c-2 53 0 67 12 67 8 0 16 -5 18 -12 3 -9 6 -9 12 0 4 7 2 12 -3
12 -6 0 -11 14 -11 30 0 27 3 30 30 30 30 0 30 0 14 -25 -16 -24 -15 -25 4
-25 12 0 26 8 31 18 9 15 10 14 11 -6 0 -34 24 -75 64 -110 45 -39 110 -50
175 -30 l46 14 5 67 c5 66 5 67 -24 77 -16 5 -31 10 -32 10 -2 0 -4 -23 -4
-50 l0 -51 -62 3 -63 3 -22 45 c-29 56 -29 88 0 131 33 49 68 63 128 52 45 -9
49 -8 49 8 0 17 -9 19 -77 19 -58 0 -86 -5 -108 -19z"/>
<path d="M5497 3553 c-16 -15 -5 -23 31 -23 l37 1 -25 14 c-29 16 -34 17 -43
8z"/>
<path d="M3628 3515 c-40 -27 -78 -96 -78 -141 1 -41 33 -107 64 -132 66 -51
131 -52 210 -2 48 31 85 90 86 136 0 27 -74 120 -111 139 -48 25 -55 17 -13
-15 45 -32 64 -66 64 -110 0 -17 5 -30 10 -30 23 0 7 -37 -35 -77 -38 -36 -52
-43 -85 -43 -21 0 -50 4 -65 10 -33 13 -64 80 -65 140 0 40 5 51 38 82 20 20
51 43 67 51 l30 16 -40 1 c-27 0 -52 -8 -77 -25z"/>
<path d="M5462 3529 c2 -7 10 -15 17 -17 8 -3 12 1 9 9 -2 7 -10 15 -17 17 -8
3 -12 -1 -9 -9z"/>
<path d="M4170 3370 l0 -160 54 0 c40 0 55 4 60 16 14 36 7 44 -40 44 l-45 0
3 130 c3 118 1 130 -14 130 -16 0 -18 -14 -18 -160z"/>
<path d="M5100 3485 c0 -8 -6 -15 -14 -15 -12 0 -15 -25 -18 -130 l-3 -130 63
0 c61 0 62 1 62 27 0 21 -3 24 -12 15 -7 -7 -27 -12 -45 -12 l-33 0 0 55 0 55
34 0 c31 0 86 31 86 49 0 4 -15 5 -32 3 -51 -6 -88 13 -88 43 0 21 5 25 28 25
26 1 26 1 8 15 -25 19 -36 19 -36 0z"/>
<path d="M3938 3340 l3 -130 28 0 c16 0 31 -7 35 -15 3 -9 19 -15 41 -15 24 0
35 -4 35 -15 0 -8 7 -15 15 -15 8 0 15 7 15 15 0 8 -6 15 -14 15 -8 0 -16 7
-20 15 -3 9 -19 15 -41 15 l-35 0 0 130 0 130 -32 0 -33 0 3 -130z"/>
<path d="M5180 3455 c7 -8 19 -15 26 -15 8 0 14 7 14 15 0 10 -10 15 -26 15
-22 0 -25 -2 -14 -15z"/>
</g>
</svg>
