<?xml version="1.0" encoding="utf-8"?>
<!-- Generator: Adobe Illustrator 21.0.2, SVG Export Plug-In . SVG Version: 6.00 Build 0)  -->
<svg version="1.1" id="Layer_1" xmlns="http://www.w3.org/2000/svg" xmlns:xlink="http://www.w3.org/1999/xlink" x="0px" y="0px"
	 viewBox="0 0 1984.3 340.2" style="enable-background:new 0 0 1984.3 340.2;" xml:space="preserve">
<style type="text/css">
	.st0{fill:#4885ED;}
	.st1{fill:#DB3236;}
	.st2{fill:#F4C20D;}
	.st3{fill:#3CBA54;}
	.st4{fill:#808080;}
	.st5{fill:#F2F2F2;}
</style>
<path id="path2998" class="st0" d="M590.2,147.4h-93.3v27.7h66.1c-3.3,38.8-35.6,55.4-66,55.4c-39,0-73-30.7-73-73.7
	c0-41.9,32.4-74.1,73.1-74.1c31.4,0,49.9,20,49.9,20l19.4-20.1c0,0-24.9-27.7-70.2-27.7c-57.8,0-102.4,48.7-102.4,101.4
	c0,51.6,42,101.9,103.9,101.9c54.4,0,94.3-37.3,94.3-92.4C591.9,154.1,590.2,147.4,590.2,147.4L590.2,147.4z"/>
<path id="path3000" class="st1" d="M666.6,127.4c-38.3,0-65.7,29.9-65.7,64.8c0,35.4,26.6,65.9,66.1,65.9
	c35.8,0,65.1-27.4,65.1-65.1C732.2,149.7,698.1,127.4,666.6,127.4L666.6,127.4z M667,153c18.8,0,36.6,15.2,36.6,39.7
	c0,24-17.8,39.6-36.7,39.6c-20.9,0-37.3-16.7-37.3-39.8C629.6,170,645.8,153,667,153L667,153z"/>
<path id="path3005" class="st2" d="M809.5,127.4c-38.3,0-65.7,29.9-65.7,64.8c0,35.4,26.6,65.9,66.1,65.9
	c35.8,0,65.1-27.4,65.1-65.1C875,149.7,840.9,127.4,809.5,127.4L809.5,127.4z M809.8,153c18.8,0,36.6,15.2,36.6,39.7
	c0,24-17.8,39.6-36.7,39.6c-20.9,0-37.3-16.7-37.3-39.8C772.4,170,788.7,153,809.8,153L809.8,153z"/>
<path id="path3007" class="st0" d="M949.6,127.5c-35.1,0-62.7,30.8-62.7,65.3c0,39.3,32,65.4,62.1,65.4c18.6,0,28.5-7.4,35.8-15.9
	v12.9c0,22.5-13.7,36-34.3,36c-20,0-30-14.8-33.4-23.3l-25.1,10.5c8.9,18.8,26.8,38.5,58.8,38.5c34.9,0,61.5-22,61.5-68.1V131.4
	h-27.4v11.1C976.4,133.4,964.9,127.5,949.6,127.5L949.6,127.5z M952.1,153.1c17.2,0,34.9,14.7,34.9,39.8c0,25.5-17.6,39.6-35.3,39.6
	c-18.7,0-36.1-15.2-36.1-39.3C915.6,168,933.7,153.1,952.1,153.1L952.1,153.1z"/>
<path id="path3011" class="st1" d="M1134,127.3c-33.1,0-60.9,26.4-60.9,65.3c0,41.2,31,65.6,64.1,65.6c27.6,0,44.6-15.1,54.7-28.7
	l-22.6-15c-5.9,9.1-15.7,18-32,18c-18.4,0-26.8-10.1-32-19.8l87.6-36.4l-4.5-10.7C1179.9,144.7,1160.2,127.3,1134,127.3L1134,127.3z
	 M1135.2,152.4c11.9,0,20.5,6.3,24.2,14l-58.5,24.5C1098.3,171.9,1116.3,152.4,1135.2,152.4L1135.2,152.4z"/>
<path id="path3015" class="st3" d="M1031.3,254.2h28.8V61.6h-28.8V254.2z"/>
<g>
	<path class="st4" d="M1313.7,256.9c-17.9,0-32.9-6.1-45-18.2c-12.1-12.1-18.2-27.3-18.2-45.4c0-18.1,6.1-33.3,18.2-45.4
		c12.1-12.1,27.1-18.2,45-18.2c18.4,0,33.3,6.6,44.7,19.9l-10.9,10.5c-8.3-10.3-19.6-15.5-33.8-15.5c-13.3,0-24.5,4.5-33.6,13.4
		c-9.1,9-13.7,20.7-13.7,35.2c0,14.5,4.6,26.2,13.7,35.2c9.1,9,20.3,13.4,33.6,13.4c14.6,0,27.1-5.9,37.4-17.7l10.9,10.9
		c-5.6,6.7-12.5,12-20.9,15.9C1332.7,255,1323.6,256.9,1313.7,256.9z"/>
	<path class="st4" d="M1400.6,256.9c-8.8,0-16.2-2.6-22.2-7.7c-5.9-5.1-8.9-11.8-8.9-20.2c0-9.1,3.5-16.2,10.5-21.3
		c7-5.2,15.7-7.7,26-7.7c9.2,0,16.7,1.7,22.6,5.1v-2.4c0-6.1-2.1-11-6.3-14.7c-4.2-3.7-9.3-5.5-15.5-5.5c-4.5,0-8.6,1.1-12.3,3.2
		c-3.7,2.2-6.2,5.1-7.6,8.8l-14.3-6.1c1.9-5,5.7-9.6,11.4-13.9c5.7-4.3,13.1-6.4,22.4-6.4c10.7,0,19.5,3.1,26.5,9.4
		c7,6.2,10.5,15,10.5,26.4v50.3h-15v-11.6h-0.7C1421.7,252.2,1412.6,256.9,1400.6,256.9z M1403.1,242.6c6.5,0,12.3-2.4,17.6-7.2
		c5.3-4.8,7.9-10.5,7.9-17.1c-4.4-3.6-11-5.4-19.9-5.4c-7.6,0-13.3,1.6-17.2,4.9c-3.9,3.3-5.8,7.1-5.8,11.6c0,4.1,1.8,7.3,5.3,9.7
		C1394.6,241.4,1398.6,242.6,1403.1,242.6z"/>
	<path class="st4" d="M1476.9,254.2h-15.6V132.5h15.6V254.2z"/>
	<path class="st4" d="M1532.8,256.9c-12.6,0-22.8-4.2-30.7-12.6c-7.9-8.4-11.8-19-11.8-31.8c0-12.1,3.8-22.6,11.5-31.3
		c7.6-8.7,17.4-13.1,29.3-13.1c12.4,0,22.2,4,29.7,12.1c7.4,8,11.1,18.8,11.1,32.3l-0.2,2.9H1506c0.5,8.4,3.3,15,8.4,19.9
		c5.2,4.9,11.2,7.3,18.1,7.3c11.2,0,18.8-4.8,22.8-14.3l13.9,5.8c-2.7,6.5-7.2,11.9-13.4,16.2
		C1549.6,254.7,1541.9,256.9,1532.8,256.9z M1555.3,202.5c-0.3-4.8-2.5-9.3-6.5-13.6c-4-4.3-10-6.5-17.9-6.5c-5.8,0-10.8,1.8-15,5.4
		c-4.3,3.6-7.2,8.5-8.8,14.6H1555.3z"/>
	<path class="st4" d="M1601.2,170.9v11.6h0.7c2.3-4,5.8-7.3,10.7-10.1c4.9-2.8,10.1-4.2,15.6-4.2c10.3,0,18.2,3.2,23.6,9.5
		c5.4,6.3,8.2,14.8,8.2,25.5v51h-15.6v-48.6c0-15.4-6.9-23.1-20.6-23.1c-6.5,0-11.7,2.6-15.8,7.7c-4.1,5.2-6.1,11.1-6.1,17.9v46.1
		h-15.6v-83.3H1601.2z"/>
	<path class="st4" d="M1713.2,256.9c-10.8,0-20.1-4.3-27.9-12.8c-7.8-8.5-11.7-19-11.7-31.6s3.9-23.1,11.7-31.6
		c7.8-8.5,17.1-12.8,27.9-12.8c6.3,0,12,1.4,17.1,4.1c5,2.7,8.8,6.1,11.3,10.2h0.7l-0.7-11.6v-38.4h15.6v121.7h-15v-11.6h-0.7
		c-2.5,4.1-6.3,7.5-11.3,10.2C1725.2,255.6,1719.6,256.9,1713.2,256.9z M1715.8,242.6c7.4,0,13.6-2.7,18.8-8.2
		c5.2-5.4,7.7-12.8,7.7-21.9c0-9.2-2.6-16.5-7.7-21.9c-5.2-5.4-11.4-8.2-18.8-8.2c-7.3,0-13.5,2.8-18.7,8.2
		c-5.2,5.5-7.8,12.8-7.8,21.8c0,9.1,2.6,16.3,7.8,21.8C1702.3,239.9,1708.5,242.6,1715.8,242.6z"/>
	<path class="st4" d="M1801.8,256.9c-8.8,0-16.2-2.6-22.2-7.7c-5.9-5.1-8.9-11.8-8.9-20.2c0-9.1,3.5-16.2,10.5-21.3
		c7-5.2,15.7-7.7,26-7.7c9.2,0,16.7,1.7,22.6,5.1v-2.4c0-6.1-2.1-11-6.3-14.7c-4.2-3.7-9.3-5.5-15.5-5.5c-4.5,0-8.6,1.1-12.3,3.2
		c-3.7,2.2-6.2,5.1-7.6,8.8l-14.3-6.1c1.9-5,5.7-9.6,11.4-13.9c5.7-4.3,13.1-6.4,22.4-6.4c10.7,0,19.5,3.1,26.5,9.4
		c7,6.2,10.5,15,10.5,26.4v50.3h-15v-11.6h-0.7C1822.9,252.2,1813.8,256.9,1801.8,256.9z M1804.3,242.6c6.5,0,12.3-2.4,17.6-7.2
		c5.3-4.8,7.9-10.5,7.9-17.1c-4.4-3.6-11-5.4-19.9-5.4c-7.6,0-13.3,1.6-17.2,4.9c-3.9,3.3-5.8,7.1-5.8,11.6c0,4.1,1.8,7.3,5.3,9.7
		C1795.8,241.4,1799.8,242.6,1804.3,242.6z"/>
	<path class="st4" d="M1878.1,254.2h-15.6v-83.3h15v13.6h0.7c1.6-4.5,4.8-8.3,9.8-11.2c4.9-2.9,9.7-4.4,14.4-4.4
		c4.6,0,8.6,0.7,11.7,2l-6,14.6c-2-0.8-4.8-1.2-8.3-1.2c-5.7,0-10.7,2.2-15,6.7c-4.4,4.5-6.5,10.3-6.5,17.6V254.2z"/>
</g>
<rect x="0.1" y="2" class="st0" width="340.2" height="340.2"/>
<g>
	<path class="st5" d="M183.3,84.7v72.4h72.4v30.4h-72.4v72.4h-30.4v-72.4H80.5v-30.4h72.4V84.7H183.3z"/>
</g>
</svg>
