<svg id="Layer_1" data-name="Layer 1" xmlns="http://www.w3.org/2000/svg" viewBox="0 0 317.73 203.57"><defs><style>.cls-1{fill:none;stroke:#003767;stroke-miterlimit:10;}.cls-2{fill:#b30838;}.cls-3{fill:#003767;}</style></defs><title>logo</title><line class="cls-1" x1="0.98" y1="164.78" x2="316.43" y2="164.78"/><path class="cls-2" d="M266.93,190.05c-.53,0-.63.53-.66.73a4.41,4.41,0,0,1-.81,1.88c-.77.8-1.93,1.12-4,1.12a8.56,8.56,0,0,1-8.52-8.75c0-2.08.25-4.44,2.1-6.24,1.17-1.15,2.94-1.71,5.4-1.71a7.8,7.8,0,0,1,4.68,1.33,3.07,3.07,0,0,1,.89,2.24c0,.26,0,.95.62.95s.63-.64.64-.92,0-.5,0-.91,0-1.2,0-1.67.07-.86.09-1.07a3.14,3.14,0,0,0,0-.36c0-.19-.07-.64-.72-.69a21.15,21.15,0,0,1-2.48-.37,21.55,21.55,0,0,0-3.67-.31c-3.42,0-6,.92-7.86,2.81a10.52,10.52,0,0,0-2.9,7.13A10,10,0,0,0,253,193c2.12,1.92,4.8,2.82,8.46,2.82a14.57,14.57,0,0,0,4.63-.61,1.24,1.24,0,0,0,.88-1,25.61,25.61,0,0,0,.56-3.32C267.52,190.26,267.2,190.05,266.93,190.05Z" transform="translate(-67.33 -54.51)"/><path class="cls-2" d="M283.62,178.48l-1.52,0-.61,0h-.35c-.33,0-.78,0-1.16,0-.73,0-.77.46-.77.55,0,.3.24.56.65.66a.32.32,0,0,1,0,.14,2,2,0,0,1-.32.89l-.9,1.53c-.77,1.31-1.77,3-2.32,4l-3.58-6,0,0a1.47,1.47,0,0,1-.22-.53c.22-.08.62-.24.62-.62,0-.17-.07-.57-.72-.57s-1.22,0-1.59,0h-.77l-1.67,0c-.66,0-.69.48-.69.57a.64.64,0,0,0,.64.62,1.75,1.75,0,0,1,.68.23,5.11,5.11,0,0,1,1.33,1.44c.78,1.18,3.7,5.89,3.85,6.15a3.41,3.41,0,0,1,.42,2v1.83c0,.34,0,1.24,0,2.1-.06.69-.22.73-.33.75a2.38,2.38,0,0,1-.54.09.59.59,0,0,0-.59.6c0,.18.07.6.77.6.47,0,1.31,0,1.8-.06h.61c.5,0,1.54.06,2.47.06.53,0,.77-.3.77-.6a.59.59,0,0,0-.6-.6,8.09,8.09,0,0,1-.93-.1c-.31,0-.44-.13-.49-.75-.07-.86-.07-1.76-.07-2.09v-1.83c0-.12,0-.25,0-.37a3.09,3.09,0,0,1,.23-1.57c.45-.91,3.51-5.88,4.19-6.68a3.41,3.41,0,0,1,1-1,1.79,1.79,0,0,1,.8-.22.67.67,0,0,0,.7-.65C284.32,178.76,284.1,178.48,283.62,178.48Z" transform="translate(-67.33 -54.51)"/><path class="cls-2" d="M295.9,185.38c0-.5.11-.84.15-1.07a2.2,2.2,0,0,0,.05-.37.55.55,0,0,0-.55-.62.71.71,0,0,0-.56.35l-.06.08c-.1.15-.24.22-.82.27-.33,0-.67,0-1.09,0l-2.92,0V177.5l3.61.07a1.52,1.52,0,0,1,1.31.55,2.32,2.32,0,0,1,.18.78c0,.5.3.72.6.72.12,0,.5,0,.61-.63,0-.2.06-.63.09-1.18,0-.22,0-.42,0-.5a6.44,6.44,0,0,1,.14-.83,1.83,1.83,0,0,0,.06-.39.59.59,0,0,0-.57-.65.76.76,0,0,0-.38.12l-.1.05a3.59,3.59,0,0,1-.69.06h-.28c-.4,0-3.07,0-4.69,0h-1.36l-1-.05c-.55,0-1.22,0-1.8,0-.74,0-.82.43-.82.62a.59.59,0,0,0,.62.57,4.33,4.33,0,0,1,.75.07c.57.12.69.3.73,1s0,1.49,0,5.39v4.41c0,2.34,0,4.36-.12,5.38-.09.71-.2,1-.39,1a3.45,3.45,0,0,1-.65.09.58.58,0,0,0-.62.57c0,.19.08.62.82.62.54,0,1.47,0,2-.06h.68c.56,0,1.71.07,2.77.07.78,0,.82-.52.82-.62a.58.58,0,0,0-.62-.57,10.6,10.6,0,0,1-1.06-.1c-.37,0-.52-.21-.6-1-.12-1-.12-3-.12-5.39v-1.93c1.81,0,3.09,0,3.44.07a1.1,1.1,0,0,1,.94.61,3.68,3.68,0,0,1,.12.75v0a.6.6,0,0,0,.59.65c.6,0,.6-.68.6-.9S295.85,185.87,295.9,185.38Z" transform="translate(-67.33 -54.51)"/><path class="cls-2" d="M312.79,194.24a2.59,2.59,0,0,1-.74-.11c-.31-.1-.84-.27-1.6-2.09s-2-4.83-3.08-7.62c-1.05-2.62-2-4.88-2.16-5.33l-.12-.26c-.16-.37-.33-.76-.78-.76s-.67.46-.91,1.1l-5.13,13.32c-.41,1-.75,1.6-1.5,1.69a5.67,5.67,0,0,1-.58,0,.61.61,0,0,0-.62.6c0,.18.08.6.84.6.61,0,1.3,0,1.75-.06l.45,0,.64,0c.44,0,1,0,1.31,0,.72,0,.74-.54.74-.6a.59.59,0,0,0-.65-.6h-.2c-.21,0-.32-.05-.32-.15a4.16,4.16,0,0,1,.3-1.29l1.2-3.3h4.76l1.91,4.75v0l0,0a.53.53,0,0,0-.35.51c0,.51.56.54,1,.56h.17c1,0,2.21,0,3.46,0,.83,0,.92-.42.92-.6A.63.63,0,0,0,312.79,194.24ZM304,182.94l1.79,4.83h-3.47Z" transform="translate(-67.33 -54.51)"/><path class="cls-2" d="M319.8,194.24a8.33,8.33,0,0,1-.93-.1c-.31,0-.36-.1-.44-.76-.1-.85-.1-2.57-.1-4.56v-3.76c0-3.31,0-3.9,0-4.56s.14-.73.43-.79a2,2,0,0,1,.46,0,.63.63,0,0,0,.6-.6c0-.18-.08-.6-.77-.6-.49,0-1.36,0-1.85,0h-.7c-.49,0-1.33,0-1.84,0-.69,0-.77.42-.77.6a.6.6,0,0,0,.6.6,3.63,3.63,0,0,1,.58.07c.16,0,.31.07.36.77s0,1.25,0,4.55v3.76c0,1.62,0,3.61-.12,4.56-.07.62-.14.74-.25.77a2.68,2.68,0,0,1-.57.09.59.59,0,0,0-.59.6c0,.1,0,.6.77.6.48,0,1.29,0,1.78-.06l.38,0h.23c.46,0,1.55.07,2.5.07.75,0,.77-.54.77-.6A.59.59,0,0,0,319.8,194.24Z" transform="translate(-67.33 -54.51)"/><path class="cls-2" d="M338.53,194.24a3.65,3.65,0,0,1-.71-.07c-.35,0-1-.14-2.18-1.35s-2.58-3-4.21-5.07l-.08-.09a6.45,6.45,0,0,0,2.52-4.91,4.18,4.18,0,0,0-1.69-3.25,7.53,7.53,0,0,0-4.3-1l-2,0-.75,0h-.33c-.53,0-1.51,0-2.25,0s-.77.42-.77.6a.63.63,0,0,0,.6.6,6.56,6.56,0,0,1,.68,0c.41.06.48.12.53.79s0,1.25,0,4.55v3.76a44.9,44.9,0,0,1-.12,4.54v.06c-.09.58-.13.7-.25.73a2.68,2.68,0,0,1-.57.09.59.59,0,0,0-.6.6c0,.1,0,.6.77.6.57,0,1.69-.05,2.06-.07h.32c.46,0,1.52.07,2.45.07.75,0,.77-.54.77-.6a.57.57,0,0,0-.59-.6,7.71,7.71,0,0,1-.9-.1c-.34-.05-.44-.13-.51-.76-.1-.85-.1-2.48-.1-4.54v-.25l2.49,0h0c.21.26.51.67.86,1.15s1,1.29,1.46,1.93c1.26,1.62,2.08,2.7,3.1,3.24a4.78,4.78,0,0,0,2.53.48h1.37c.26,0,.94,0,.94-.6A.62.62,0,0,0,338.53,194.24Zm-12.14-14.07a10.26,10.26,0,0,1,1.31-.09c2.12,0,3.34,1.37,3.34,3.76a3.47,3.47,0,0,1-1.13,2.91,2.44,2.44,0,0,1-1.4.3,8.25,8.25,0,0,1-2.13-.25Z" transform="translate(-67.33 -54.51)"/><path class="cls-3" d="M324.89,126.55c0,2.59,0,4.83-.13,6-.1.75-.22,1.07-.42,1.11a3.62,3.62,0,0,1-.72.1.68.68,0,0,0-.71.66c0,.21.1.71.94.71.6,0,1.64,0,2.27-.07l.42,0h.3c.62,0,1.9.07,3.08.07.88,0,.93-.59.94-.72a.68.68,0,0,0-.72-.66,11.45,11.45,0,0,1-1.16-.11c-.41-.06-.55-.22-.65-1.09-.13-1.15-.13-3.38-.13-6V115.31l3,0c2.76.07,2.85.74,2.9,1.08l0,.29c0,.78.41.94.73.94h0c.33,0,.67-.28.67-.86,0-.11,0-.47,0-.91,0-.72.05-1.63.05-2.18s-.37-.76-.63-.79a2.32,2.32,0,0,0-.39.06,10.9,10.9,0,0,1-2.32.22H321.9c-.3,0-1.33-.05-2.13-.14a2,2,0,0,1-.77-.2,1.27,1.27,0,0,0-.46-.13h-.08a.67.67,0,0,0-.52.43l0,.07c0,.09-.08.19-.1.28l0,.12s-.62,2.61-.62,3a.67.67,0,0,0,.64.75.77.77,0,0,0,.73-.6,4.08,4.08,0,0,1,.42-.76c.29-.44.7-.64,2.39-.67l3.57,0Z" transform="translate(-67.33 -54.51)"/><path class="cls-3" d="M348.59,133.46l0,.12a.58.58,0,0,1,0,.14.66.66,0,0,0-.43.63c0,.63.65.66,1.17.68h.13c1.23,0,2.76.05,4.33.05.94,0,1-.5,1-.72s0-.66-.77-.66a3,3,0,0,1-1-.15c-.48-.14-1.15-.58-2-2.79-.32-.79-.72-1.84-1.18-3a3.81,3.81,0,0,0,1.9-1.85l.49-1.18-1.15.55a4.57,4.57,0,0,1-1.74.29h-.35c-1-2.5-2-5.25-2.83-7.44l-.35-.92L344.75,114c-.29-.77-.5-1.32-1.07-1.32s-.75.53-1.07,1.41l-6.24,17.25c-.56,1.58-1.06,2.17-1.9,2.29-.2,0-.56.05-.73.05a.68.68,0,0,0-.74.66c0,.33.18.72,1,.72s1.85,0,2.5-.06l.61,0,.68,0c.47,0,1.06.05,1.47.05.86,0,.9-.6.9-.72a.67.67,0,0,0-.77-.66h-.28c-.15,0-.55-.07-.55-.31a6.76,6.76,0,0,1,.36-1.71l.14-.41c.33-1,1.13-3.39,1.49-4.5a12.4,12.4,0,0,1,4.84.93,10.16,10.16,0,0,0,1.12.3C347,129.26,347.74,131.18,348.59,133.46Zm-5.34-14.83c.62,1.69,1.64,4.51,2.15,6.12a10,10,0,0,0-1.54-.12,10.29,10.29,0,0,0-2.69.37Z" transform="translate(-67.33 -54.51)"/><path class="cls-3" d="M384.65,142.3l-.1,0H384c-3.61,0-7.06-3.19-10.56-9.75a21.84,21.84,0,0,0-4.48-6c-.19-.14-1-.77-1.46-1.15a8.37,8.37,0,0,0,2.09-1.67,6.67,6.67,0,0,0,1.23-4.14c0-.32,0-.65,0-1a5.92,5.92,0,0,0-2.1-4.13,8.87,8.87,0,0,0-5.32-1.32c-.54,0-1.58,0-2.34.06l-.9,0h-.34c-.59,0-1.82-.07-2.76-.07s-.93.55-.93.73a.68.68,0,0,0,.71.65,4.65,4.65,0,0,1,.82.07c.63.14.74.3.8,1.13s.05,1.65.05,6v4.89c0,2.59,0,4.83-.13,6-.1.75-.22,1.07-.42,1.11a3.65,3.65,0,0,1-.72.1.68.68,0,0,0-.71.66c0,.17.07.71.93.71.48,0,1.32,0,2.5-.08h.39c.62,0,1.9.07,3.07.07.88,0,.93-.59.94-.72a.68.68,0,0,0-.71-.66,11,11,0,0,1-1.17-.11c-.41-.06-.55-.21-.65-1.09-.14-1.14-.14-3.37-.14-6V115.11a9.46,9.46,0,0,1,1.57-.11c2.7,0,4.25,1.85,4.26,5.06a6.18,6.18,0,0,1-.52,2.68l0,0a2.53,2.53,0,0,1-.49.64,5.39,5.39,0,0,1-2.28,1.25h0a2.33,2.33,0,0,0-.37.14l-.05,0a.78.78,0,0,0-.49.59v.05a.57.57,0,0,0,.07.27l0,0a1.33,1.33,0,0,0,.69.45,3.56,3.56,0,0,1,.47.21,7,7,0,0,1,1.33,1.14,34.11,34.11,0,0,1,2.69,4.21c1.77,3.05,4,6.85,7.41,9.94,1.57,1.41,3.88,2.1,7.07,2.1h0c1.28,0,1.55-.18,1.67-.25a.69.69,0,0,0,.38-.62v-.07A.66.66,0,0,0,384.65,142.3Z" transform="translate(-67.33 -54.51)"/><path class="cls-3" d="M359.58,152.73a4.55,4.55,0,0,1-1.73.28,8.39,8.39,0,0,1-2.58-.44,9.94,9.94,0,0,0-2.64-.47v-6.7c.88,0,3,0,3.38.08,1.33.15,1.45.41,1.55.64a2.54,2.54,0,0,1,.13.81c0,.63.38.86.71.86.16,0,.56-.07.68-.72,0-.23.07-.74.11-1.36,0-.23,0-.41,0-.5a7.16,7.16,0,0,1,.15-.92,2,2,0,0,0,.07-.43c0-.55-.32-.75-.6-.75a.94.94,0,0,0-.45.13l-.06,0a6.79,6.79,0,0,1-1.08.12c-.49,0-4.17,0-6.27,0h-.45c-.62,0-1.77-.06-2.66-.06s-.93.5-.93.71a.68.68,0,0,0,.71.66,4.41,4.41,0,0,1,.83.07c.61.13.74.32.79,1.13s.06,1.65.06,6v.64a8.52,8.52,0,0,0-2.12.92l-.93.71,1.17,0c.06,0,1.37.06,1.83.06h0v2.52c0,2.7,0,4.83-.14,6-.12.88-.24,1.07-.41,1.11a3.62,3.62,0,0,1-.71.1.67.67,0,0,0-.72.66c0,.21.09.72.93.72.56,0,1.5,0,2.12-.06H351l.91,0H352c1.07,0,2.86.13,5.74.13,1.08,0,1.67,0,2-1.1a26.75,26.75,0,0,0,.37-2.81c0-.75-.36-.91-.66-.91-.59,0-.69.6-.73.83-.19,1.11-.48,1.43-.94,1.63a7.68,7.68,0,0,1-2.44.26c-2.53,0-2.63-.29-2.69-1.8,0-.41,0-2.27,0-3.5v-3.17l1.16.37a8.17,8.17,0,0,0,2.52.45,4.09,4.09,0,0,0,3.94-2.27l.47-1.17-1,.46Z" transform="translate(-67.33 -54.51)"/><path class="cls-3" d="M315.32,145.48c1.33.15,1.45.41,1.55.64a2.54,2.54,0,0,1,.13.81c0,.63.38.86.71.86.16,0,.56-.07.68-.72,0-.23.07-.74.11-1.36,0-.23,0-.41,0-.5a7.53,7.53,0,0,1,.15-.92,2,2,0,0,0,.07-.43c0-.55-.32-.75-.6-.75a.94.94,0,0,0-.45.13l-.06,0a6.79,6.79,0,0,1-1.08.12c-.49,0-4.17,0-6.27,0h-.45c-.62,0-1.77-.06-2.66-.06s-.93.5-.93.71a.68.68,0,0,0,.71.66,4.42,4.42,0,0,1,.83.07c.61.13.74.32.79,1.13s.06,1.65.06,6v.64a8.47,8.47,0,0,0-2.12.92l-.93.71,1.17,0c.05,0,1.37.06,1.83.06h0v2.52c0,2.7,0,4.83-.14,6-.12.88-.24,1.07-.41,1.11a3.64,3.64,0,0,1-.71.1.67.67,0,0,0-.72.66c0,.21.09.72.93.72.56,0,1.5,0,2.13-.06h.57l.91,0h.14c1.07,0,2.86.13,5.74.13,1.08,0,1.67,0,2-1.1a26.76,26.76,0,0,0,.37-2.81c0-.75-.36-.91-.66-.91-.59,0-.69.6-.73.83-.19,1.11-.48,1.43-.94,1.63a7.67,7.67,0,0,1-2.44.26c-2.53,0-2.62-.29-2.69-1.8,0-.41,0-2.27,0-3.5v-3.17l1.16.37a8.16,8.16,0,0,0,2.52.45,4.09,4.09,0,0,0,3.94-2.27l.47-1.17-1,.46-.17.08a4.56,4.56,0,0,1-1.73.28,8.4,8.4,0,0,1-2.58-.44,9.94,9.94,0,0,0-2.64-.47v-6.7C312.82,145.41,315,145.44,315.32,145.48Z" transform="translate(-67.33 -54.51)"/><path class="cls-3" d="M225.62,134a21.32,21.32,0,0,0,.5-3.37,1.61,1.61,0,0,0-.06-.52.65.65,0,0,0-.63-.46h0c-.21,0-.7.09-.77.84a4,4,0,0,1-.73,1.71c-.59.73-1.78.79-3.39.79h-.13c-2.41,0-3.1-.22-3.48-.6s-.56-3.69-.56-7.07v-5.77c0-5,0-6,.07-7s.25-1.29.83-1.39a7.11,7.11,0,0,1,1-.09.71.71,0,0,0,.75-.69c0-.23-.1-.76-1-.76-.7,0-2.07.05-2.89.08l-.57,0-.4,0c-.69,0-2.13-.09-3.23-.09-.91,0-1,.53-1,.76a.71.71,0,0,0,.75.68,5.54,5.54,0,0,1,1,.09c.77.17.93.4,1,1.39s.06,1.93.06,7v5.71c0,3,0,5.64-.15,7-.13.95-.28,1.32-.55,1.37a4.34,4.34,0,0,1-.86.12.71.71,0,0,0-.75.69c0,.23.1.75,1,.76.63,0,1.64,0,2.37-.07l.77,0c.71,0,1.45,0,2.39.06,1.5.06,3.37.13,6.2.13h.23C224.89,135.21,225.34,135,225.62,134Z" transform="translate(-67.33 -54.51)"/><path class="cls-3" d="M238.86,135.49c6.64,0,11.45-5,11.45-11.85,0-6.52-4.54-10.91-11.29-10.91-8.24,0-11.32,7-11.32,11.35C227.71,129.57,231.2,135.49,238.86,135.49Zm0-20.83c3.78,0,7.86,3.05,7.86,9.75,0,8.6-5.9,9-7.09,9-4.88,0-8.3-4.17-8.3-10.14C231.31,118,234.19,114.66,238.83,114.66Z" transform="translate(-67.33 -54.51)"/><path class="cls-3" d="M253.71,135.1c.87,0,1.7,0,2.2-.07l.43,0,.38,0c.49,0,1.4.07,2.54.07.84,0,1-.44,1-.72a.67.67,0,0,0-.71-.66,5.34,5.34,0,0,1-1.24-.15c-.34-.1-.66-.39-.71-2.76l-.32-11.94c1.33,1.49,3.78,4.24,6.28,7,2.94,3.19,6.9,7.28,7.19,7.54l.1.11c1.54,1.55,1.78,1.79,2.2,1.81h.07a.7.7,0,0,0,.67-.72,14.56,14.56,0,0,0,.06-1.74l.05-16.27c0-1.78.15-1.89.64-2a1.88,1.88,0,0,1,.54-.07.73.73,0,0,0,.79-.72c0-.66-.73-.66-1-.66-.75,0-1.42,0-1.86.06l-.47,0-.56,0c-.58,0-1.45-.06-2.3-.06h0c-.32,0-1,0-1,.65v0a.66.66,0,0,0,.71.68,7,7,0,0,1,1.22.12c.45.12.67.26.7,2.17l.28,12.8L270,127.91c-1.23-1.36-2.75-3.06-4.19-4.61-4.22-4.58-8.33-9.05-8.75-9.54l-.25-.27a1.79,1.79,0,0,0-1.07-.76.74.74,0,0,0-.71.67,5.88,5.88,0,0,0-.08,1.21l0,15.91c0,2.13-.12,3-.49,3.05a3.28,3.28,0,0,1-1,.14.68.68,0,0,0-.71.66C252.78,134.65,252.91,135.1,253.71,135.1Z" transform="translate(-67.33 -54.51)"/><path class="cls-3" d="M246.38,158.53c-.66,0-.77.68-.8.9a5.79,5.79,0,0,1-1.05,2.46c-1.18,1.22-2.94,1.47-5.23,1.47A11.14,11.14,0,0,1,228.21,152c0-2.7.33-5.77,2.74-8.11,1-1,2.76-2.23,7-2.23a10.09,10.09,0,0,1,6.09,1.73,4,4,0,0,1,1.17,2.93,2.26,2.26,0,0,0,.06.64.71.71,0,0,0,.71.53h0c.69,0,.74-.78.76-1.14s0-.65,0-1.17c0-.7,0-1.56.06-2.18s.09-1.11.12-1.38a4.15,4.15,0,0,0,0-.43.79.79,0,0,0-.19-.58.94.94,0,0,0-.68-.29,26.48,26.48,0,0,1-3.16-.47h-.06a28.18,28.18,0,0,0-4.74-.39c-4.41,0-7.73,1.18-10.13,3.62a13.57,13.57,0,0,0-3.74,9.2,12.83,12.83,0,0,0,4,10c2.72,2.48,6.19,3.63,10.91,3.63h0a19,19,0,0,0,6-.79,1.59,1.59,0,0,0,1.11-1.25,34,34,0,0,0,.72-4.29C247.09,158.71,246.67,158.55,246.38,158.53Z" transform="translate(-67.33 -54.51)"/><path class="cls-3" d="M259.85,165.77c6.64,0,11.45-5,11.45-11.85,0-6.53-4.54-10.91-11.29-10.91-8.25,0-11.32,7-11.32,11.35C248.7,159.85,252.19,165.77,259.85,165.77Zm0-20.83c3.79,0,7.86,3.05,7.86,9.75,0,8.59-5.91,9-7.09,9-4.88,0-8.29-4.17-8.29-10.14C252.3,148.25,255.18,144.94,259.82,144.94Z" transform="translate(-67.33 -54.51)"/><path class="cls-3" d="M273.77,144.12a.68.68,0,0,0,.72.65,4.42,4.42,0,0,1,.81.07c.63.14.74.3.8,1.13s.05,1.65.05,6v4.89c0,2.59,0,4.82-.13,6-.1.74-.22,1.07-.41,1.11a3.75,3.75,0,0,1-.72.1.68.68,0,0,0-.71.66c0,.21.09.71.93.71.54,0,1.41,0,2-.06l.65,0c.61,0,1.24,0,2,.06,1.29,0,2.88.11,5.3.11h.22c1.24,0,1.73-.17,2-1.12a18.14,18.14,0,0,0,.43-2.91,1.47,1.47,0,0,0-.05-.47.62.62,0,0,0-.61-.45h0c-.16,0-.67.06-.73.78a3.43,3.43,0,0,1-.61,1.43c-.48.6-1.51.64-2.8.64h-.16c-2,0-2.63-.19-2.94-.5-.46-.45-.46-4.34-.45-6v-4.94c0-4.32,0-5.1.05-6s.21-1,.66-1.13a6.06,6.06,0,0,1,.82-.08.68.68,0,0,0,.71-.66c0-.17-.07-.71-.93-.71-.6,0-1.78,0-2.48.07l-.49,0h-.34c-.59,0-1.82-.07-2.76-.07S273.77,143.94,273.77,144.12Z" transform="translate(-67.33 -54.51)"/><path class="cls-3" d="M290,144.13a.68.68,0,0,0,.72.65,4.47,4.47,0,0,1,.82.07c.63.14.74.3.8,1.13s.05,1.65.05,6v4.89c0,2.59,0,4.83-.13,6-.1.74-.22,1.07-.41,1.11a3.77,3.77,0,0,1-.72.1.68.68,0,0,0-.71.66c0,.21.09.71.93.71.54,0,1.41,0,2-.06l.65,0c.61,0,1.24,0,2,.06,1.29,0,2.88.11,5.3.11h.22c1.25,0,1.74-.17,2-1.11a18,18,0,0,0,.43-2.91,1.46,1.46,0,0,0,0-.46.63.63,0,0,0-.61-.45h0c-.15,0-.66.06-.73.79a3.35,3.35,0,0,1-.61,1.43c-.48.6-1.51.64-2.79.64h-.16c-2,0-2.63-.19-2.94-.5-.46-.45-.46-4.34-.45-6v-4.94c0-4.32,0-5.1.06-6s.21-1,.66-1.13a6.06,6.06,0,0,1,.82-.08.68.68,0,0,0,.71-.66c0-.17-.07-.71-.93-.71-.6,0-1.77,0-2.48.07l-.49,0h-.34c-.59,0-1.82-.07-2.77-.07S290,143.94,290,144.13Z" transform="translate(-67.33 -54.51)"/><path class="cls-3" d="M342.85,154c-.6,0-1.64,0-2.26.07l-.43,0h-.35c-.59,0-1.82-.07-2.76-.07s-.93.55-.93.72a.68.68,0,0,0,.72.66,4.84,4.84,0,0,1,.79.06c.81.24.86.25.88,2.38v4.72a.53.53,0,0,1-.3.55,7.06,7.06,0,0,1-2.89.52,9.45,9.45,0,0,1-6.85-2.83,10.91,10.91,0,0,1-2.76-7.34c0-2.91.95-5.4,2.54-6.67a8.18,8.18,0,0,1,5.58-1.72c3.24,0,5.4,1.05,6,2a3.77,3.77,0,0,1,.5,1.6v.06c0,.23.09.77.65.81h0a.68.68,0,0,0,.64-.43,1.72,1.72,0,0,0,.09-.64,29.76,29.76,0,0,1,.15-3.45c0-.22,0-.37,0-.47a.76.76,0,0,0-.8-.77,12.8,12.8,0,0,1-2.14-.27,23.93,23.93,0,0,0-4.31-.48,13.86,13.86,0,0,0-7.57,1.83,11.09,11.09,0,0,0-4.82,9.55,11.34,11.34,0,0,0,3.44,8.28c2.33,2.05,5.48,3.09,9.37,3.1h0a13.92,13.92,0,0,0,6.06-1.31c.59-.33.61-.73.61-1.93v-3.11c0-1.15,0-2,.05-2.86s.24-1.05.61-1.12a3.42,3.42,0,0,1,.6-.08.68.68,0,0,0,.71-.66C343.78,154.52,343.71,154,342.85,154Z" transform="translate(-67.33 -54.51)"/><path class="cls-3" d="M279.79,123.2l-1.15.72L280,124c.06,0,1.37.06,1.83.06h0v2.52c0,2.7,0,4.83-.14,6-.09.67-.19,1.07-.41,1.11a3.67,3.67,0,0,1-.72.1.67.67,0,0,0-.72.66c0,.22.09.72.93.72.59,0,1.61,0,2.25-.07h.44l1.06,0c1.07,0,2.86.13,5.73.13,1.08,0,1.67,0,2-1.1a27.21,27.21,0,0,0,.37-2.81c0-.75-.36-.91-.66-.91-.59,0-.69.6-.74.83-.19,1.1-.49,1.43-.94,1.63a7.64,7.64,0,0,1-2.44.26c-2.54,0-2.62-.26-2.69-1.8,0-.42,0-2.35,0-3.5V124.6l1.16.37a8.14,8.14,0,0,0,2.52.45,4.15,4.15,0,0,0,3.94-2.27l.47-1.18-1.15.55a4.57,4.57,0,0,1-1.73.28,8.46,8.46,0,0,1-2.58-.44,9.87,9.87,0,0,0-2.64-.47v-6.7c.88,0,3,0,3.38.08,1.33.15,1.45.42,1.55.64a2.56,2.56,0,0,1,.13.81c0,.63.38.86.71.86.16,0,.56-.07.68-.72,0-.24.07-.82.1-1.33v0c0-.22,0-.4,0-.49a7.51,7.51,0,0,1,.16-.92,1.92,1.92,0,0,0,.07-.43c0-.55-.33-.74-.6-.74a.94.94,0,0,0-.44.13l-.07,0a6.53,6.53,0,0,1-1.07.12c-.53,0-4.81,0-6.27,0h-.35c-.54,0-1.8-.07-2.75-.07s-.93.5-.93.72a.68.68,0,0,0,.71.66,4.5,4.5,0,0,1,.83.07c.61.13.74.32.79,1.13s.05,1.65.05,6v.64A8.92,8.92,0,0,0,279.79,123.2Z" transform="translate(-67.33 -54.51)"/><path class="cls-3" d="M303.15,134.45l.31.15.07,0h0l.1,0,.24.11h0a10.34,10.34,0,0,0,4.14.75,8.85,8.85,0,0,0,5.13-1.45,7.25,7.25,0,0,0,2.93-5.78c0-3-1.27-5.15-4.87-8l-.89-.71c-3-2.52-3.73-3.46-3.73-5.07a3.16,3.16,0,0,1,3.45-3.27c2.5,0,3.33,1,3.58,1.46a5.48,5.48,0,0,1,.36,1.43c.06.57.31.86.74.87h0c.66-.07.67-.8.68-1.24,0-1.72.08-2.74.11-3.17,0-.13,0-.22,0-.26a.68.68,0,0,0-.26-.57.9.9,0,0,0-.55-.15,4.8,4.8,0,0,1-1-.15,12.67,12.67,0,0,0-3.1-.34,7.63,7.63,0,0,0-5.18,1.74,6,6,0,0,0-2,4.59c0,2.71,1.26,4.86,4.35,7.42l1.44,1.2c2.75,2.3,3.51,3.48,3.51,5.46a3.79,3.79,0,0,1-4.09,3.82c-1.11,0-3.74-.29-4.26-2.92a5.23,5.23,0,0,1-.09-1.1,1,1,0,0,0-.1-.51.68.68,0,0,0-.63-.34h0c-.65,0-.71.74-.73,1s0,.22,0,.37c0,.66-.13,1.77-.13,3.1,0,.72,0,1.14.4,1.45Z" transform="translate(-67.33 -54.51)"/><polygon class="cls-3" points="63.78 62.41 76.17 24.22 91.05 56.55 77 0 57.25 52.89 0 52.89 50.42 85.67 26.74 62.4 63.78 62.41"/><path class="cls-3" d="M225.71,100.68s-44.56-5.56-87.76,27.78c0,0-38,31.5-43.24,84.25,0,0,21.68-60.45,61.1-84S206.23,105.73,225.71,100.68Z" transform="translate(-67.33 -54.51)"/><polygon class="cls-3" points="48.9 140.06 76.47 103.68 108.55 124.33 94.11 90.31 130.24 64.82 106.73 93.28 122.54 141.41 77.14 116.25 48.9 140.06"/><path class="cls-3" d="M105,240.86a4.84,4.84,0,0,0-3.91-1.89,4.52,4.52,0,0,0-4.57,4.75,4.45,4.45,0,0,0,4.64,4.66,5.13,5.13,0,0,0,3.84-1.82v5.35a12.62,12.62,0,0,1-3.94.8,9.55,9.55,0,0,1-6.44-2.52,8.39,8.39,0,0,1-2.75-6.48,9,9,0,0,1,2.53-6.28,9.3,9.3,0,0,1,6.53-2.78,10.46,10.46,0,0,1,4.07.86Z" transform="translate(-67.33 -54.51)"/><path class="cls-3" d="M120.88,246.43c0,4-3.28,6.21-7,6.21s-7-2.23-7-6.21,3.28-6.23,7-6.23S120.88,242.45,120.88,246.43Zm-9.69,0a2.66,2.66,0,0,0,5.32,0,2.66,2.66,0,0,0-5.32,0Z" transform="translate(-67.33 -54.51)"/><path class="cls-3" d="M126.88,242h0a4.32,4.32,0,0,1,3.69-1.84,4.27,4.27,0,0,1,4,2.23,4.46,4.46,0,0,1,4-2.23c3,0,4,1.93,4,4.62v7.44h-4.14v-5.57c0-1.21,0-3.19-1.71-3.19-1.91,0-2,1.8-2,3.19v5.57h-4.14v-5.57c0-1.3,0-3.28-1.84-3.28s-1.84,2-1.84,3.28v5.57h-4.14V240.58h4.14Z" transform="translate(-67.33 -54.51)"/><path class="cls-3" d="M149.25,241.9h0a4.14,4.14,0,0,1,3.53-1.71,6,6,0,0,1,5.89,6.26,5.91,5.91,0,0,1-5.85,6.19,4.77,4.77,0,0,1-3.62-1.5v6.94H145.1v-17.5h4.14Zm-.14,4.53a2.66,2.66,0,0,0,5.32,0,2.66,2.66,0,0,0-5.32,0Z" transform="translate(-67.33 -54.51)"/><path class="cls-3" d="M164.83,240.58v6.23c0,1.48.36,2.53,2.07,2.53s2.07-1,2.07-2.53v-6.23h4.14v7c0,3.84-2.71,5-6.21,5s-6.21-1.18-6.21-5v-7Z" transform="translate(-67.33 -54.51)"/><path class="cls-3" d="M180.28,252.26h-4.14V244h-1.34v-3.41h1.34v-3.5h4.14v3.5h2.34V244h-2.34Z" transform="translate(-67.33 -54.51)"/><path class="cls-3" d="M195.93,247.11h-8.71a2.32,2.32,0,0,0,2.59,2.59,2.07,2.07,0,0,0,2-1.07h4a4.76,4.76,0,0,1-2.21,3,7.14,7.14,0,0,1-3.73,1c-3.87,0-6.76-2.18-6.76-6.21s2.66-6.23,6.46-6.23c4,0,6.39,2.5,6.39,6.48Zm-3.84-2.39a2.48,2.48,0,0,0-4.8,0Z" transform="translate(-67.33 -54.51)"/><path class="cls-3" d="M202,242.5h0a4.06,4.06,0,0,1,3.78-2.07h.8v4a3.35,3.35,0,0,0-1.75-.39c-2.3,0-2.87,1.52-2.87,3.53v4.71h-4.14V240.58H202Z" transform="translate(-67.33 -54.51)"/><path class="cls-3" d="M225.43,239.51a4.7,4.7,0,0,0-3-1.14c-.82,0-1.91.48-1.91,1.43s1.21,1.39,2,1.64l1.14.34c2.39.71,4.23,1.91,4.23,4.69a5.83,5.83,0,0,1-1.77,4.62,7.53,7.53,0,0,1-4.87,1.61,10.58,10.58,0,0,1-6-2l1.91-3.59a6.11,6.11,0,0,0,4,1.77c1,0,2.16-.52,2.16-1.73s-1.75-1.68-2.71-2c-2.8-.8-4.64-1.52-4.64-4.85a5.56,5.56,0,0,1,5.92-5.76,11.73,11.73,0,0,1,5.37,1.41Z" transform="translate(-67.33 -54.51)"/><path class="cls-3" d="M238.36,244.38a3.66,3.66,0,0,0-2.14-.82,2.8,2.8,0,0,0-2.84,2.84,2.77,2.77,0,0,0,2.91,2.87,3.18,3.18,0,0,0,2.07-.8V252a6.49,6.49,0,0,1-2.91.66,6.16,6.16,0,0,1-6.35-6.1,6.25,6.25,0,0,1,6.53-6.35,5.65,5.65,0,0,1,2.73.68Z" transform="translate(-67.33 -54.51)"/><path class="cls-3" d="M245.32,236.1a2.32,2.32,0,1,1-2.32-2.32A2.33,2.33,0,0,1,245.32,236.1Zm-.25,16.15h-4.14V240.58h4.14Z" transform="translate(-67.33 -54.51)"/><path class="cls-3" d="M259.79,247.11h-8.71a2.32,2.32,0,0,0,2.59,2.59,2.07,2.07,0,0,0,2-1.07h4a4.76,4.76,0,0,1-2.21,3,7.14,7.14,0,0,1-3.73,1c-3.87,0-6.76-2.18-6.76-6.21s2.66-6.23,6.46-6.23c4,0,6.39,2.5,6.39,6.48Zm-3.84-2.39a2.48,2.48,0,0,0-4.8,0Z" transform="translate(-67.33 -54.51)"/><path class="cls-3" d="M265.81,242.09h0a4,4,0,0,1,3.73-1.89c3.14,0,4.39,2,4.39,4.85v7.21h-4.14v-5.69c0-1.12.18-3.07-1.87-3.07-1.68,0-2.16,1.25-2.16,2.71v6.05h-4.14V240.58h4.14Z" transform="translate(-67.33 -54.51)"/><path class="cls-3" d="M285.13,244.38a3.66,3.66,0,0,0-2.14-.82,2.8,2.8,0,0,0-2.84,2.84,2.77,2.77,0,0,0,2.91,2.87,3.18,3.18,0,0,0,2.07-.8V252a6.49,6.49,0,0,1-2.91.66,6.16,6.16,0,0,1-6.35-6.1,6.25,6.25,0,0,1,6.53-6.35,5.65,5.65,0,0,1,2.73.68Z" transform="translate(-67.33 -54.51)"/><path class="cls-3" d="M299.69,247.11H291a2.32,2.32,0,0,0,2.59,2.59,2.07,2.07,0,0,0,2-1.07h4a4.76,4.76,0,0,1-2.21,3,7.14,7.14,0,0,1-3.73,1c-3.87,0-6.76-2.18-6.76-6.21s2.66-6.23,6.46-6.23c4,0,6.39,2.5,6.39,6.48Zm-3.84-2.39a2.48,2.48,0,0,0-4.8,0Z" transform="translate(-67.33 -54.51)"/><path class="cls-3" d="M321.73,240.86a4.84,4.84,0,0,0-3.91-1.89,4.52,4.52,0,0,0-4.57,4.75,4.45,4.45,0,0,0,4.64,4.66,5.13,5.13,0,0,0,3.84-1.82v5.35a12.62,12.62,0,0,1-3.94.8,9.55,9.55,0,0,1-6.44-2.52,8.39,8.39,0,0,1-2.75-6.48,9,9,0,0,1,2.53-6.28,9.3,9.3,0,0,1,6.53-2.78,10.46,10.46,0,0,1,4.07.86Z" transform="translate(-67.33 -54.51)"/><path class="cls-3" d="M328.53,252.26h-4.14V233.37h4.14Z" transform="translate(-67.33 -54.51)"/><path class="cls-3" d="M335.34,240.58v6.23c0,1.48.36,2.53,2.07,2.53s2.07-1,2.07-2.53v-6.23h4.14v7c0,3.84-2.71,5-6.21,5s-6.21-1.18-6.21-5v-7Z" transform="translate(-67.33 -54.51)"/><path class="cls-3" d="M346.12,233.37h4.14v8.35a4.8,4.8,0,0,1,3.62-1.52,6.23,6.23,0,0,1,0,12.45,4.13,4.13,0,0,1-3.53-1.68h0v1.3h-4.14Zm4,13.06a2.66,2.66,0,0,0,5.32,0,2.66,2.66,0,0,0-5.32,0Z" transform="translate(-67.33 -54.51)"/></svg>